<svg width="26" height="20" viewBox="0 0 26 20" fill="none" xmlns="http://www.w3.org/2000/svg">
<path fill-rule="evenodd" clip-rule="evenodd" d="M12.9273 0.010498C9.94584 0.010498 7.55102 2.40532 7.55102 5.38679C7.55102 8.36913 9.94564 10.7642 12.9273 10.7642C15.909 10.7642 18.3036 8.36913 18.3036 5.38679C18.3036 2.40532 15.9088 0.010498 12.9273 0.010498ZM12.9273 1.7605C14.9423 1.7605 16.5536 3.37182 16.5536 5.38679C16.5536 7.4027 14.9424 9.01415 12.9273 9.01415C10.9122 9.01415 9.30102 7.4027 9.30102 5.38679C9.30102 3.37182 10.9123 1.7605 12.9273 1.7605ZM6.33825 1.10935C6.8215 1.10935 7.21325 1.5011 7.21325 1.98435C7.21325 2.4676 6.8215 2.85935 6.33825 2.85935C4.95182 2.85935 3.82739 3.98329 3.82739 5.36914C3.82739 6.75499 4.95182 7.87894 6.33825 7.87894C6.8215 7.87894 7.21325 8.27069 7.21325 8.75394C7.21325 9.23718 6.8215 9.62894 6.33825 9.62894C3.98549 9.62894 2.07739 7.72166 2.07739 5.36914C2.07739 3.01662 3.98549 1.10935 6.33825 1.10935ZM23.7881 5.36914C23.7881 3.01662 21.88 1.10935 19.5273 1.10935C19.044 1.10935 18.6523 1.5011 18.6523 1.98435C18.6523 2.4676 19.044 2.85935 19.5273 2.85935C20.9137 2.85935 22.0381 3.98329 22.0381 5.36914C22.0381 6.75499 20.9137 7.87894 19.5273 7.87894C19.044 7.87894 18.6523 8.27069 18.6523 8.75394C18.6523 9.23718 19.044 9.62894 19.5273 9.62894C21.88 9.62894 23.7881 7.72166 23.7881 5.36914ZM22.9117 11.8142C22.3515 11.6878 21.7528 11.6013 21.1441 11.5594C20.662 11.5261 20.2442 11.89 20.2109 12.3721C20.1777 12.8542 20.5416 13.272 21.0237 13.3052C21.5446 13.3411 22.0551 13.4149 22.5515 13.5266C23.3235 13.678 23.8268 13.9291 23.9517 14.1909C24.0456 14.3885 24.0456 14.6208 23.9508 14.8207C23.8275 15.0799 23.3284 15.3297 22.5674 15.4862C22.094 15.5835 21.7892 16.0461 21.8866 16.5195C21.9839 16.9928 22.4465 17.2977 22.9199 17.2003C24.1778 16.9416 25.0992 16.4804 25.5315 15.5716C25.852 14.8959 25.852 14.1122 25.5316 13.4383C25.0962 12.526 24.1589 12.0584 22.9117 11.8142ZM5.6546 12.3721C5.62135 11.89 5.20358 11.5261 4.72147 11.5594C4.11272 11.6013 3.51402 11.6878 2.92978 11.8193L2.68893 11.8702C1.58337 12.1228 0.739928 12.587 0.33508 13.4382C0.0132502 14.1115 0.0132501 14.8966 0.335419 15.5723C0.765832 16.4802 1.68724 16.9415 2.94565 17.2003C3.419 17.2977 3.88163 16.9928 3.97896 16.5195C4.0763 16.0461 3.77148 15.5835 3.29814 15.4862C2.53737 15.3297 2.03876 15.0801 1.91589 14.8209C1.82015 14.6201 1.82015 14.3892 1.91471 14.1913C2.03953 13.9289 2.54232 13.678 3.29001 13.5316L3.67877 13.452C4.06632 13.3804 4.45117 13.3322 4.84188 13.3052C5.32398 13.272 5.68785 12.8542 5.6546 12.3721ZM5.0282 16.0487C5.0282 13.2651 7.90746 12.2862 12.9273 12.2862L13.283 12.2879C18.093 12.3331 20.8264 13.3142 20.8264 16.0284C20.8264 18.6787 18.2136 19.6935 13.6296 19.7841L12.9273 19.7909C7.89595 19.7909 5.0282 18.8292 5.0282 16.0487ZM19.0764 16.0284C19.0764 14.7328 16.9991 14.0362 12.9273 14.0362C8.85948 14.0362 6.7782 14.7438 6.7782 16.0487C6.7782 17.3445 8.85485 18.0409 12.9273 18.0409C16.9939 18.0409 19.0764 17.3327 19.0764 16.0284Z" fill="#1D2032"/>
</svg>
