<svg width="20" height="20" viewBox="0 0 20 20" fill="none" xmlns="http://www.w3.org/2000/svg">
<path opacity="0.4" d="M13.3964 1.66675H16.2181C17.3866 1.66675 18.3335 2.62162 18.3335 3.80005V6.64552C18.3335 7.82395 17.3866 8.77882 16.2181 8.77882H13.3964C12.2279 8.77882 11.281 7.82395 11.281 6.64552V3.80005C11.281 2.62162 12.2279 1.66675 13.3964 1.66675Z" fill="#FAD85D"/>
<path fill-rule="evenodd" clip-rule="evenodd" d="M3.78219 1.66675H6.60382C7.77238 1.66675 8.71926 2.62162 8.71926 3.80005V6.64552C8.71926 7.82395 7.77238 8.77882 6.60382 8.77882H3.78219C2.61363 8.77882 1.66675 7.82395 1.66675 6.64552V3.80005C1.66675 2.62162 2.61363 1.66675 3.78219 1.66675ZM3.78219 11.2213H6.60382C7.77238 11.2213 8.71926 12.1762 8.71926 13.3546V16.2001C8.71926 17.3777 7.77238 18.3334 6.60382 18.3334H3.78219C2.61363 18.3334 1.66675 17.3777 1.66675 16.2001V13.3546C1.66675 12.1762 2.61363 11.2213 3.78219 11.2213ZM16.218 11.2213H13.3963C12.2278 11.2213 11.2809 12.1762 11.2809 13.3546V16.2001C11.2809 17.3777 12.2278 18.3334 13.3963 18.3334H16.218C17.3865 18.3334 18.3334 17.3777 18.3334 16.2001V13.3546C18.3334 12.1762 17.3865 11.2213 16.218 11.2213Z" fill="#FAD85D"/>
</svg>
